<?xml version="1.0" encoding="utf-8"?>
<!-- Generator: Adobe Illustrator 23.0.4, SVG Export Plug-In . SVG Version: 6.00 Build 0)  -->
<svg version="1.1" id="Layer_1" xmlns="http://www.w3.org/2000/svg" xmlns:xlink="http://www.w3.org/1999/xlink" x="0px" y="0px"
	 viewBox="0 0 100 100" style="enable-background:new 0 0 100 100;" xml:space="preserve">
<style type="text/css">
	.st0{fill:none;stroke:#00A3FF;stroke-width:2;stroke-miterlimit:10;}
	.st1{fill:none;stroke:#02D29A;stroke-width:3;stroke-miterlimit:10;}
</style>
<path class="st0" d="M72.1,39.7c7.8,0,14.2,6.3,14.2,14.2v19"/>
<path class="st0" d="M13.3,72.9v-19c0-7.8,6.3-14.2,14.2-14.2"/>
<polyline class="st0" points="54.6,33 54.6,26.9 47.5,26.9 47.5,33 "/>
<line class="st0" x1="46.8" y1="95.6" x2="46.8" y2="67.4"/>
<line class="st0" x1="33.2" y1="80.1" x2="33.2" y2="84.8"/>
<line class="st0" x1="33.2" y1="67.9" x2="33.2" y2="72.6"/>
<rect x="28.1" y="85.3" class="st0" width="18.8" height="10.3"/>
<rect x="30.4" y="72.6" class="st0" width="7" height="7"/>
<line class="st0" x1="52.9" y1="95.6" x2="52.9" y2="67.4"/>
<line class="st0" x1="66.5" y1="79" x2="66.5" y2="84.8"/>
<line class="st0" x1="66.5" y1="67.5" x2="66.5" y2="73.3"/>
<rect x="52.9" y="85.3" class="st0" width="18.8" height="10.3"/>
<rect x="62.3" y="72.6" class="st0" width="7" height="7"/>
<rect x="26.6" y="32.7" class="st0" width="46.4" height="35.2"/>
<rect x="32.3" y="39.3" class="st1" width="15.5" height="22"/>
<polyline class="st0" points="35.8,21.2 30.4,21.2 30.4,10 36,10 "/>
<polyline class="st0" points="63.9,10 69.3,10 69.3,21.2 63.9,21.2 "/>
<rect x="36" y="4.4" class="st0" width="27.7" height="22.4"/>
<g>
	<line class="st1" x1="52.8" y1="43.5" x2="66.1" y2="43.5"/>
	<line class="st1" x1="52.8" y1="50.1" x2="66.1" y2="50.1"/>
	<line class="st1" x1="52.8" y1="56.7" x2="66.1" y2="56.7"/>
</g>
<line class="st1" x1="42.6" y1="12.1" x2="46.8" y2="12.1"/>
<line class="st1" x1="52.9" y1="12.1" x2="57.1" y2="12.1"/>
<path class="st1" d="M41.7,18.2c4.8,3,10.9,3,15.8,0"/>
<path class="st0" d="M15.2,84.4c-3.4,0-6.2-2.8-6.2-6.2c0-3.4,2.8-6.2,6.2-6.2s6.2,2.8,6.2,6.2"/>
<path class="st0" d="M85.1,84.4c3.4,0,6.2-2.8,6.2-6.2c0-3.4-2.8-6.2-6.2-6.2S79,74.8,79,78.2"/>
</svg>
