<?xml version="1.0" encoding="utf-8"?>
<!-- Generator: Adobe Illustrator 24.0.1, SVG Export Plug-In . SVG Version: 6.00 Build 0)  -->
<svg version="1.1" id="Layer_1" xmlns="http://www.w3.org/2000/svg" xmlns:xlink="http://www.w3.org/1999/xlink" x="0px" y="0px"
	 width="100px" height="100px" viewBox="0 0 100 100" style="enable-background:new 0 0 100 100;" xml:space="preserve">
<style type="text/css">
	.st0{fill:none;stroke:#E14DAF;stroke-width:3;stroke-miterlimit:10;}
	.st1{fill:none;stroke:#050038;stroke-width:3;stroke-miterlimit:10;}
	.st2{fill:none;stroke:#02D29A;stroke-width:3;stroke-miterlimit:10;}
</style>
<g>
	<polyline class="st0" points="57.1,52.2 64.7,62 76.8,52.8 95.5,59.4 	"/>
	<polyline class="st0" points="18.1,42.2 29.3,43.7 43.4,34.6 51.6,45.1 	"/>
	<line class="st1" x1="12.9" y1="94.7" x2="12.9" y2="3.3"/>
	<polyline class="st1" points="1.8,14.2 12.9,3.1 24,14.2 	"/>
	<line class="st1" x1="5.5" y1="86.9" x2="96.9" y2="86.9"/>
	<polyline class="st1" points="86,75.7 97.1,86.9 86,98 	"/>
	<polyline class="st2" points="16.1,65.5 22.2,71.6 33.8,54.9 46.5,64.5 63.2,30.6 74.8,38.7 94,11.9 	"/>
	<g>
		<line class="st1" x1="20.2" y1="94.7" x2="20.2" y2="87"/>
		<line class="st1" x1="28.3" y1="94.7" x2="28.3" y2="87"/>
		<line class="st1" x1="36.4" y1="94.7" x2="36.4" y2="87"/>
		<line class="st1" x1="44.4" y1="94.7" x2="44.4" y2="87"/>
		<line class="st1" x1="52.5" y1="94.7" x2="52.5" y2="87"/>
		<line class="st1" x1="60.6" y1="94.7" x2="60.6" y2="87"/>
		<line class="st1" x1="68.7" y1="94.7" x2="68.7" y2="87"/>
		<line class="st1" x1="76.8" y1="94.7" x2="76.8" y2="87"/>
	</g>
	<g>
		<line class="st1" x1="4.5" y1="22.1" x2="12.2" y2="22.1"/>
		<line class="st1" x1="4.5" y1="30.2" x2="12.2" y2="30.2"/>
		<line class="st1" x1="4.5" y1="38.3" x2="12.2" y2="38.3"/>
		<line class="st1" x1="4.5" y1="46.3" x2="12.2" y2="46.3"/>
		<line class="st1" x1="4.5" y1="54.4" x2="12.2" y2="54.4"/>
		<line class="st1" x1="4.5" y1="62.5" x2="12.2" y2="62.5"/>
		<line class="st1" x1="4.5" y1="70.6" x2="12.2" y2="70.6"/>
		<line class="st1" x1="4.5" y1="78.7" x2="12.2" y2="78.7"/>
	</g>
</g>
</svg>
